<?xml version="1.0" encoding="utf-8"?>
<!-- Generator: Adobe Illustrator 23.0.1, SVG Export Plug-In . SVG Version: 6.00 Build 0)  -->
<svg version="1.1" id="flowscope" xmlns="http://www.w3.org/2000/svg" xmlns:xlink="http://www.w3.org/1999/xlink" x="0px" y="0px"
	 viewBox="0 0 209.2 40.21" style="enable-background:new 0 0 209.2 40.21;" xml:space="preserve">
<style type="text/css">
	.st0{fill:#0089EF;}
	.st1{fill:none;}
	.st2{fill:#17BC9C;}
</style>
<g>
	<path class="st0" d="M51.3,29.7V14.23c0-3.86,3.13-6.99,6.99-6.99h5.17c1.22,0,2.22,0.99,2.22,2.22v0c0,1.22-0.99,2.22-2.22,2.22
		h-4.57c-1.65,0-2.98,1.34-2.98,2.98v3.58c0,0.05,0.04,0.1,0.1,0.1h5.31c1.18,0,2.13,0.95,2.13,2.13v0c0,1.18-0.95,2.13-2.13,2.13
		H56c-0.05,0-0.1,0.04-0.1,0.1v7.01c0,1.27-1.03,2.3-2.3,2.3h0C52.33,32,51.3,30.97,51.3,29.7z"/>
	<path class="st0" d="M71.51,9.35v20.54c0,1.17-0.94,2.11-2.11,2.11h0c-1.17,0-2.11-0.94-2.11-2.11V9.35c0-1.17,0.94-2.11,2.11-2.11
		h0C70.57,7.24,71.51,8.18,71.51,9.35z"/>
	<path class="st0" d="M91.46,23.04c0,4.95-3.38,8.97-8.97,8.97c-5.58,0-8.93-4.01-8.93-8.97c0-4.92,3.42-8.97,8.9-8.97
		C87.93,14.07,91.46,18.12,91.46,23.04z M77.82,23.04c0,2.62,1.57,5.06,4.67,5.06c3.1,0,4.67-2.44,4.67-5.06
		c0-2.58-1.81-5.09-4.67-5.09C79.42,17.95,77.82,20.46,77.82,23.04z"/>
	<path class="st0" d="M107.49,16.18l3.11,10.72c0.04,0.14,0.24,0.14,0.28,0l3.33-10.95c0.28-0.92,1.13-1.56,2.1-1.56h0
		c1.51,0,2.57,1.49,2.07,2.91l-4.36,12.3c-0.5,1.43-1.75,2.4-3.27,2.4h0c-1.52,0-2.81-0.68-3.3-2.46l-0.79-2.93
		c0-0.01-1.28-4.79-1.28-4.79c-0.07-0.27-0.45-0.27-0.52,0l-1.27,4.77c0,0-0.38,1.6-0.74,2.89c-0.54,1.94-1.79,2.52-3.34,2.52h0
		c-1.59,0-2.87-1.01-3.39-2.51l-4.28-12.16c-0.5-1.44,0.56-2.94,2.08-2.94h0c0.97,0,1.83,0.64,2.11,1.56l3.32,10.94
		c0.04,0.14,0.24,0.14,0.28,0l3.08-10.71c0.31-1.06,1.28-1.8,2.39-1.8h0C106.21,14.39,107.18,15.12,107.49,16.18z"/>
	<path class="st0" d="M132.39,17.88c-0.5,0.56-1.32,0.57-2.37,0.06c-1.06-0.52-6.04-1.85-6.11,1.16c-0.03,1.12,0.73,1.77,3.16,1.96
		c3.41,0.27,7.34,1.11,7.23,5.68c-0.07,3.03-2.61,5.59-7.52,5.48c-2.22-0.05-4.44-0.41-6.52-2c-0.81-0.62-0.97-1.79-0.37-2.62v0
		c0.58-0.8,1.67-1.04,2.51-0.52c1.35,0.83,3.16,1.39,4.53,1.45c1.6,0.07,3.12-0.73,3.15-1.99c0.03-1.19-0.77-1.85-3.72-2.06
		c-3.25-0.23-6.74-1.43-6.65-5.34c0.09-3.98,4.24-5.28,7.38-5.2c1.84,0.04,3.36,0.32,4.77,1.07
		C132.94,15.57,133.19,16.98,132.39,17.88L132.39,17.88z"/>
	<path class="st0" d="M149.56,27.89c0.91,0.89,0.73,2.4-0.37,3.05c-1.43,0.85-2.95,1.21-4.69,1.21c-4.99,0-9.14-3-9.14-9.1
		c0-6.11,4.15-9.11,9.14-9.11c1.61,0,2.97,0.3,4.26,1.04c1.12,0.64,1.32,2.18,0.43,3.11v0c-0.6,0.63-1.55,0.82-2.33,0.42
		c-0.74-0.37-1.53-0.56-2.29-0.56c-2.86,0-4.95,2.09-4.95,5.09c0,3.28,2.23,5.02,4.88,5.02c0.91,0,1.81-0.17,2.63-0.59
		c0.76-0.4,1.68-0.3,2.3,0.3L149.56,27.89z"/>
	<path class="st0" d="M168.07,23.04c0,4.95-3.38,8.97-8.97,8.97c-5.58,0-8.93-4.01-8.93-8.97c0-4.92,3.42-8.97,8.9-8.97
		C164.55,14.07,168.07,18.12,168.07,23.04z M154.43,23.04c0,2.62,1.57,5.06,4.67,5.06c3.1,0,4.67-2.44,4.67-5.06
		c0-2.58-1.81-5.09-4.67-5.09C156.04,17.95,154.43,20.46,154.43,23.04z"/>
	<path class="st0" d="M169.52,36.68V16.53c0-1.16,0.94-2.11,2.11-2.11h0c1.07,0,1.97,0.8,2.09,1.86l0.03,0.29
		c0.01,0.08,0.11,0.11,0.16,0.04c1.34-1.79,3.56-2.57,5.45-2.57c5.3,0,8.83,3.94,8.83,9c0,5.02-3.17,9-8.69,9
		c-1.73,0-4.25-0.51-5.54-2.18c-0.06-0.08-0.18-0.04-0.18,0.06v6.76c0,1.18-0.95,2.13-2.13,2.13l0,0
		C170.48,38.81,169.52,37.86,169.52,36.68z M183.93,23.04c0-2.69-1.81-4.88-4.88-4.88c-3.07,0-4.88,2.2-4.88,4.88
		s1.99,4.88,4.88,4.88C181.94,27.92,183.93,25.73,183.93,23.04z"/>
	<g>
		<path class="st1" d="M198.7,17.67c-2.3,0-4.19,1.12-4.81,3.35h9.28C202.88,18.78,201.14,17.67,198.7,17.67z"/>
		<path class="st0" d="M198.56,13.9c-5.58,0-9.14,3.77-9.14,9c0,5.51,3.52,9.17,9.45,9.17c1.81,0,3.78-0.43,5.42-1.32
			c1.12-0.6,1.3-2.14,0.39-3.03c-0.59-0.58-1.48-0.74-2.21-0.35c-1.05,0.56-2.42,0.89-3.54,0.83c-3.23-0.19-4.59-1.92-5.09-3.66
			h11.47c1.13,0,2.03-0.94,1.99-2.07C207.14,16.76,203.72,13.9,198.56,13.9z M193.88,21.02c0.63-2.23,2.51-3.35,4.81-3.35
			c2.44,0,4.19,1.12,4.47,3.35H193.88z"/>
	</g>
	<path class="st0" d="M32.74,4.13c-1.13,0-2.2,0.28-3.15,0.75c-0.82-0.55-1.68-1.03-2.58-1.43c-0.02-0.01-0.03-0.02-0.05-0.03
		c-1.45-0.65-3-1.11-4.62-1.35c-0.04-0.01-0.08-0.01-0.12-0.02c-0.39-0.06-0.78-0.1-1.18-0.13c-0.04,0-0.09,0-0.13-0.01
		c-0.22-0.01-0.45-0.03-0.68-0.04c-0.02,0-0.03,0.01-0.05,0.01c-0.15,0-0.3-0.02-0.45-0.02c-9.78,0-17.74,7.96-17.74,17.74
		c0,9.78,7.96,17.74,17.74,17.74c2.83,0,5.55-0.67,7.98-1.9c0.01,0,0.61-0.33,1.01-0.55c-0.07,0-0.14,0.01-0.21,0.01
		c-1.11,0-2.15-0.26-3.09-0.71c-1.78,0.7-3.7,1.08-5.69,1.08c-6.18,0-11.53-3.6-14.08-8.8c1.32,0.89,2.9,1.41,4.6,1.41
		c4.56,0,8.27-3.71,8.27-8.27c0-0.8-0.12-1.57-0.33-2.3l8.2-3.08c1.14,2.35,3.55,3.98,6.34,3.98c3.89,0,7.05-3.16,7.05-7.05
		C39.78,7.29,36.62,4.13,32.74,4.13z M25.69,11.18c0,0.64,0.09,1.26,0.26,1.86l-8.2,3.08c-1.32-2.81-4.18-4.76-7.49-4.76
		c-1.7,0-3.28,0.52-4.6,1.4c2.55-5.2,7.9-8.79,14.07-8.79c0.36,0,0.72,0.01,1.08,0.04c0.02,0,0.04,0,0.06,0
		c0.35,0.03,0.7,0.06,1.05,0.11c0.03,0,0.07,0.01,0.1,0.01c2.05,0.31,4,1.02,5.75,2.07C26.48,7.47,25.69,9.23,25.69,11.18z
		 M37.29,18.91c-0.56,0.33-1.16,0.61-1.79,0.82c-0.07,0.02-0.12,0.09-0.12,0.16c-0.03,1.55-0.29,3.07-0.76,4.52
		c0.54,0.96,0.87,2.05,0.91,3.22c1.24-2.44,1.94-5.18,1.94-8.01c0-0.22-0.01-0.43-0.01-0.64C37.46,18.84,37.35,18.88,37.29,18.91z"
		/>
	<g>
		<path class="st2" d="M35.46,26.87c-0.03-0.2-0.06-0.39-0.11-0.58c-0.01-0.04-0.02-0.08-0.03-0.11c-0.04-0.17-0.09-0.34-0.15-0.5
			c-0.01-0.03-0.02-0.07-0.03-0.1c-0.06-0.18-0.13-0.36-0.21-0.53c-0.02-0.05-0.04-0.09-0.06-0.14c-1.12-2.41-3.55-4.08-6.37-4.08
			c-2.62,0-4.91,1.44-6.13,3.57l-4.34-1.97c-0.15,0.41-0.33,0.8-0.53,1.18l4.35,1.97c-0.25,0.72-0.39,1.49-0.39,2.29
			c0,2.9,1.76,5.39,4.26,6.47c0.02,0.01,0.05,0.02,0.07,0.03c0.18,0.07,0.36,0.14,0.55,0.2c0.04,0.01,0.08,0.03,0.12,0.04
			c0.19,0.06,0.38,0.11,0.57,0.15c0.04,0.01,0.08,0.02,0.12,0.03c0.2,0.04,0.4,0.07,0.6,0.09c0.03,0,0.06,0.01,0.1,0.01
			c0.22,0.02,0.44,0.03,0.66,0.03c0.07,0,0.14-0.01,0.21-0.01c0.12-0.07,0.24-0.14,0.36-0.22c0.17-0.11,0.34-0.22,0.51-0.33
			c0.12-0.08,0.24-0.16,0.35-0.24c0.3-0.21,0.59-0.43,0.87-0.65c0.03-0.02,0.05-0.05,0.08-0.07c0.29-0.24,0.58-0.49,0.86-0.74
			c0,0,0.01-0.01,0.01-0.01c0.33-0.3,0.65-0.62,0.96-0.95c0.08-0.09,0.15-0.18,0.21-0.26c1.03-1.16,1.9-2.42,2.6-3.8
			c-0.01-0.21-0.03-0.42-0.05-0.62C35.48,26.97,35.47,26.92,35.46,26.87z"/>
	</g>
</g>
</svg>
