<?xml version="1.0" encoding="utf-8"?>
<!-- Generator: Adobe Illustrator 23.0.1, SVG Export Plug-In . SVG Version: 6.00 Build 0)  -->
<svg version="1.1" id="Layer_1" xmlns="http://www.w3.org/2000/svg" xmlns:xlink="http://www.w3.org/1999/xlink" x="0px" y="0px"
	 viewBox="0 0 643 131" style="enable-background:new 0 0 643 131;" xml:space="preserve">
<style type="text/css">
	.st0{fill:#FFFFFF;}
</style>
<g>
	<path class="st0" d="M155.53,94.66V47.27c0-11.83,9.59-21.42,21.42-21.42h15.84c3.75,0,6.79,3.04,6.79,6.79v0
		c0,3.75-3.04,6.79-6.79,6.79h-14.01c-5.05,0-9.14,4.09-9.14,9.14v10.97c0,0.17,0.14,0.3,0.3,0.3h16.27c3.6,0,6.52,2.92,6.52,6.52v0
		c0,3.6-2.92,6.52-6.52,6.52h-16.27c-0.17,0-0.3,0.14-0.3,0.3v21.48c0,3.9-3.16,7.05-7.05,7.05h0
		C158.69,101.71,155.53,98.55,155.53,94.66z"/>
	<path class="st0" d="M217.47,32.31v62.93c0,3.57-2.9,6.47-6.47,6.47h0c-3.57,0-6.47-2.9-6.47-6.47V32.31c0-3.57,2.9-6.47,6.47-6.47
		h0C214.58,25.85,217.47,28.74,217.47,32.31z"/>
	<path class="st0" d="M278.58,74.26c0,15.18-10.37,27.47-27.47,27.47s-27.36-12.29-27.36-27.47c0-15.07,10.47-27.47,27.26-27.47
		S278.58,59.19,278.58,74.26z M236.79,74.26c0,8.02,4.81,15.5,14.32,15.5c9.51,0,14.32-7.48,14.32-15.5
		c0-7.91-5.56-15.61-14.32-15.61C241.7,58.66,236.79,66.35,236.79,74.26z"/>
	<path class="st0" d="M327.7,53.24l9.53,32.83c0.12,0.43,0.72,0.43,0.85,0.01l10.19-33.56c0.86-2.83,3.47-4.76,6.43-4.76h0
		c4.62,0,7.87,4.56,6.35,8.93L347.7,94.37c-1.52,4.4-5.37,7.34-10.03,7.34l0,0c-4.66,0-8.61-2.1-10.11-7.53l-2.41-8.99
		c-0.01-0.02-3.92-14.68-3.92-14.68c-0.22-0.82-1.38-0.82-1.59,0l-3.9,14.62c0,0.01-1.15,4.91-2.25,8.85
		c-1.66,5.93-5.48,7.73-10.24,7.73h0c-4.88,0-8.79-3.09-10.39-7.69l-13.11-37.27c-1.53-4.4,1.73-8.99,6.39-8.99l0,0
		c2.98,0,5.6,1.95,6.47,4.79l10.18,33.52c0.13,0.42,0.73,0.42,0.85-0.01l9.44-32.81c0.94-3.26,3.92-5.5,7.31-5.5l0,0
		C323.78,47.76,326.75,49.99,327.7,53.24z"/>
	<path class="st0" d="M404,58.46c-1.52,1.71-4.04,1.75-7.25,0.18c-3.26-1.6-18.51-5.68-18.72,3.54c-0.08,3.42,2.23,5.42,9.7,6
		c10.44,0.81,22.48,3.41,22.15,17.41c-0.22,9.3-7.99,17.13-23.05,16.79c-6.82-0.16-13.61-1.25-19.97-6.12
		c-2.5-1.91-2.99-5.49-1.14-8.04l0,0c1.77-2.44,5.13-3.18,7.7-1.61c4.14,2.53,9.68,4.27,13.88,4.45c4.91,0.22,9.57-2.24,9.66-6.08
		c0.08-3.63-2.35-5.67-11.38-6.3c-9.94-0.7-20.66-4.39-20.38-16.36c0.28-12.18,12.99-16.16,22.61-15.94
		c5.64,0.13,10.3,0.99,14.6,3.28C405.66,51.39,406.45,55.71,404,58.46L404,58.46z"/>
	<path class="st0" d="M456.6,89.13c2.79,2.72,2.22,7.34-1.12,9.33c-4.37,2.6-9.05,3.7-14.38,3.7c-15.28,0-28-9.19-28-27.9
		c0-18.7,12.72-27.9,28-27.9c4.93,0,9.11,0.93,13.04,3.18c3.43,1.96,4.03,6.68,1.31,9.54l0,0c-1.84,1.94-4.74,2.51-7.12,1.3
		c-2.26-1.15-4.68-1.72-7.02-1.72c-8.76,0-15.18,6.41-15.18,15.61c0,10.05,6.84,15.39,14.96,15.39c2.78,0,5.56-0.52,8.05-1.82
		c2.34-1.22,5.16-0.93,7.05,0.91L456.6,89.13z"/>
	<path class="st0" d="M513.31,74.26c0,15.18-10.37,27.47-27.47,27.47c-17.1,0-27.36-12.29-27.36-27.47
		c0-15.07,10.48-27.47,27.25-27.47C502.51,46.8,513.31,59.19,513.31,74.26z M471.52,74.26c0,8.02,4.81,15.5,14.32,15.5
		c9.51,0,14.32-7.48,14.32-15.5c0-7.91-5.56-15.61-14.32-15.61C476.43,58.66,471.52,66.35,471.52,74.26z"/>
	<path class="st0" d="M517.75,116.05V54.31c0-3.56,2.89-6.45,6.45-6.45l0,0c3.27,0,6.02,2.45,6.41,5.7l0.1,0.88
		c0.03,0.25,0.34,0.33,0.49,0.12c4.11-5.48,10.9-7.87,16.69-7.87c16.25,0,27.04,12.08,27.04,27.58c0,15.39-9.73,27.57-26.61,27.57
		c-5.29,0-13.01-1.55-16.97-6.69c-0.19-0.24-0.56-0.13-0.56,0.18v20.72c0,3.6-2.92,6.52-6.52,6.52l0,0
		C520.67,122.57,517.75,119.66,517.75,116.05z M561.89,74.26c0-8.23-5.56-14.96-14.96-14.96s-14.96,6.73-14.96,14.96
		s6.09,14.96,14.96,14.96C555.8,89.23,561.89,82.49,561.89,74.26z"/>
	<path class="st0" d="M591.28,68.06h29.53c-0.85-6.84-6.2-10.26-13.68-10.26c-7.05,0-12.83,3.42-14.75,10.26
		c-1.58,3.65-2.82,20.95,15.5,22.02c3.43,0.2,7.63-0.81,10.84-2.54c2.22-1.19,4.97-0.69,6.77,1.08v0c2.77,2.73,2.21,7.44-1.21,9.28
		c-5.04,2.72-11.08,4.04-16.61,4.04c-18.17,0-28.97-11.22-28.97-28.11c0-16.03,10.9-27.57,28-27.57c15.82,0,26.31,8.78,26.83,26.25
		c0.1,3.46-2.64,6.35-6.11,6.35l-36.14,0c-2.98,0-5.4-2.42-5.4-5.4v0C585.89,70.48,588.3,68.06,591.28,68.06z"/>
	<path class="st0" d="M98.67,59.52c11.91,0,21.59-9.69,21.59-21.59c0-11.9-9.68-21.59-21.59-21.59c-3.47,0-6.75,0.84-9.66,2.31
		c-2.51-1.68-5.15-3.15-7.9-4.39c-0.05-0.03-0.1-0.07-0.16-0.1c-4.44-1.99-9.2-3.39-14.16-4.13c-0.12-0.02-0.24-0.04-0.35-0.05
		c-1.2-0.17-2.4-0.31-3.63-0.4c-0.13-0.01-0.26-0.01-0.4-0.02c-0.69-0.05-1.38-0.09-2.07-0.11c-0.06,0-0.1,0.02-0.16,0.03
		c-0.46-0.01-0.91-0.05-1.37-0.05c-29.97,0-54.35,24.38-54.35,54.36c0,29.97,24.38,54.35,54.35,54.35c8.66,0,17.01-2.07,24.45-5.82
		c0.03-0.01,1.87-1.01,3.08-1.69c-0.22,0.01-0.43,0.03-0.66,0.03c-0.68,0-1.35-0.04-2.01-0.1c0.66,0.06,1.33,0.1,2.01,0.1
		c0.22,0,0.44-0.03,0.66-0.03c0.37-0.22,0.75-0.44,1.11-0.67c0.53-0.33,1.05-0.67,1.57-1.02c0.36-0.24,0.73-0.48,1.08-0.73
		c0.91-0.64,1.8-1.31,2.67-2c0.08-0.07,0.17-0.14,0.25-0.21c0.9-0.73,1.77-1.49,2.62-2.27c0.02-0.01,0.03-0.03,0.05-0.04
		c1.01-0.93,1.99-1.89,2.93-2.9c0.25-0.27,0.47-0.54,0.65-0.81c3.15-3.54,5.81-7.42,7.96-11.64c-0.02-0.64-0.08-1.27-0.16-1.9
		c0.08,0.62,0.14,1.25,0.16,1.88c3.81-7.48,5.93-15.86,5.93-24.53c0-0.66-0.04-1.31-0.04-1.97c0-0.41-0.34-0.29-0.5-0.19
		c-1.72,1.02-3.55,1.88-5.48,2.51c-0.22,0.07-0.37,0.27-0.37,0.5c-0.08,4.76-0.9,9.41-2.33,13.84c0.28,0.5,0.54,1.01,0.78,1.53
		c-3.44-7.37-10.89-12.51-19.53-12.51c-8.04,0-15.05,4.42-18.77,10.95l-13.31-6.04c0.97-2.69,1.51-5.59,1.51-8.61
		c0-2.44-0.35-4.8-1-7.03l25.14-9.42C82.76,54.53,90.13,59.52,98.67,59.52z M107.02,86.01c-0.09-0.6-0.2-1.19-0.33-1.78
		C106.83,84.82,106.94,85.41,107.02,86.01z M106.06,82.03c-0.19-0.55-0.41-1.09-0.64-1.63C105.65,80.94,105.87,81.48,106.06,82.03z
		 M106.61,83.89c-0.13-0.52-0.28-1.04-0.45-1.55C106.33,82.85,106.48,83.37,106.61,83.89z M81.54,110.24
		c0.61,0.12,1.22,0.22,1.84,0.28C82.76,110.46,82.14,110.36,81.54,110.24z M65.3,82.03c-0.76,2.21-1.2,4.57-1.2,7.03
		c0,8.88,5.39,16.51,13.06,19.83c-0.31-0.14-0.62-0.27-0.93-0.42c-5.46,2.14-11.35,3.29-17.42,3.29
		c-18.92,0-35.32-11.02-43.12-26.97c4.04,2.72,8.88,4.32,14.1,4.32c9.54,0,17.87-5.31,22.18-13.12L65.3,82.03z M81.16,110.16
		c-0.59-0.13-1.18-0.28-1.75-0.45C79.98,109.89,80.56,110.04,81.16,110.16z M79.06,109.6c-0.57-0.19-1.13-0.39-1.68-0.62
		C77.92,109.21,78.48,109.41,79.06,109.6z M52.72,53.04c-4.05-8.61-12.8-14.59-22.93-14.59c-5.21,0-10.05,1.58-14.09,4.29
		C23.52,26.8,39.9,15.8,58.81,15.8c1.11,0,2.21,0.04,3.31,0.12c0.06,0,0.12,0.01,0.18,0.01c1.08,0.08,2.15,0.2,3.21,0.35
		c0.1,0.01,0.2,0.03,0.3,0.04c6.28,0.94,12.25,3.13,17.61,6.33c-3.92,3.91-6.34,9.31-6.34,15.27c0,1.97,0.29,3.87,0.79,5.69
		L52.72,53.04z"/>
</g>
</svg>
